<svg width="115.454407" height="23.000000" viewBox="0 0 115.454 23" fill="none" xmlns="http://www.w3.org/2000/svg" xmlns:xlink="http://www.w3.org/1999/xlink">
	<desc>
			Created with Pixso.
	</desc>
	<path d="M6.56141 18.4C6.56141 20.9405 8.56434 23 11.0351 23C13.5058 23 15.5088 20.9405 15.5088 18.4L15.5088 9.2L15.5038 8.89014C15.3482 4.05544 11.5647 0.165115 6.86275 0.00511932L6.56141 0L4.47369 0C2.00294 0 1.90735e-06 2.05949 1.90735e-06 4.6C1.90735e-06 7.14051 2.00294 9.2 4.47369 9.2L6.56141 9.2L6.56141 18.4Z" fill-rule="nonzero" fill="url(#paint_linear_6_10_0)"/>
	<path d="M4.17544 9.2C1.84367 9.03205 0 7.03741 0 4.6C0 2.16259 1.84367 0.167953 4.17529 0.0100708L27.4386 0L27.4386 9.2L4.17544 9.2Z" fill-rule="nonzero" fill="url(#paint_linear_6_11_0)"/>
	<path d="M27.4386 18.4C27.4386 20.9405 25.4357 23 22.9649 23C20.4942 23 18.4912 20.9405 18.4912 18.4L18.4912 9.2L18.4962 8.89014C18.6518 4.05544 22.4353 0.165115 27.1372 0.00511932L27.4386 0L29.5263 0C31.9971 0 34 2.05949 34 4.6C34 7.14051 31.9971 9.2 29.5263 9.2L27.4386 9.2L27.4386 18.4Z" fill-rule="nonzero" fill="url(#paint_linear_6_12_0)"/>
	<path d="M53.8064 22C54.3656 22 54.7312 21.819 54.9032 21.4569L56.8064 19.1034L58.9677 21.4795C59.1613 21.8265 59.5376 22 60.0968 22L63.129 22C63.4086 22 63.6237 21.9585 63.7742 21.8755C63.9247 21.7926 64 21.6756 64 21.5248C64 21.389 63.9409 21.257 63.8226 21.1288C63.7043 21.0005 63.6237 20.9138 63.5806 20.8685L59.2258 16.139L63 11.4774C63.2366 11.1756 63.3763 10.9192 63.4194 10.708C63.4624 10.5269 63.4839 10.3836 63.4839 10.278L63.4839 8.24138C63.4839 8.03017 63.3978 7.86423 63.2258 7.74353C63.0538 7.62285 62.8172 7.5625 62.5161 7.5625L59.0968 7.5625L59.0968 5.93319L62.8064 5.93319C63.1075 5.93319 63.3441 5.87285 63.5161 5.75215C63.6882 5.63146 63.7742 5.46552 63.7742 5.25431L63.7742 3.4666C63.7742 3.25539 63.6882 3.08944 63.5161 2.96875C63.3441 2.84806 63.1075 2.78771 62.8064 2.78771L59.0968 2.78771L59.0968 1.67888C59.0968 1.46767 59.0108 1.30173 58.8387 1.18104C58.6667 1.06035 58.4301 1 58.129 1L55.7097 1C55.4086 1 55.172 1.06035 55 1.18104C54.828 1.30173 54.7419 1.46767 54.7419 1.67888L54.7419 2.78771L51.129 2.78771C50.828 2.78771 50.5914 2.84806 50.4194 2.96875C50.2473 3.08944 50.1613 3.25539 50.1613 3.4666L50.1613 5.25431C50.1613 5.46552 50.2473 5.63146 50.4194 5.75215C50.5914 5.87285 50.828 5.93319 51.129 5.93319L54.7419 5.93319L54.7419 7.5625L51.3548 7.5625C51.0538 7.5625 50.8172 7.62285 50.6452 7.74353C50.4731 7.86423 50.3871 8.03017 50.3871 8.24138L50.3871 10.0291C50.3871 10.2403 50.4731 10.4062 50.6452 10.5269C50.8172 10.6476 51.0538 10.708 51.3548 10.708L58.7097 10.708L56.5806 13.2877L55.5484 12.1562C55.3763 11.7942 55.0108 11.6131 54.4516 11.6131L51.5484 11.6131C50.9677 11.6131 50.6774 11.7791 50.6774 12.111C50.6774 12.2317 50.7366 12.3561 50.8548 12.4844C50.9731 12.6126 51.0538 12.6994 51.0968 12.7446L54.1935 16.1843L50.3871 20.8459C50.3441 20.8912 50.2688 20.9779 50.1613 21.1061C50.0538 21.2344 50 21.3588 50 21.4795C50 21.8265 50.2903 22 50.871 22L53.8064 22ZM47.3984 22C47.7019 22 47.9404 21.9397 48.1138 21.819C48.2873 21.6983 48.374 21.5323 48.374 21.3211L48.374 14.1024L49.1545 13.9666C49.7182 13.8761 50 13.6272 50 13.2198L50 11.4095C50 11.2134 49.935 11.0625 49.8049 10.9569C49.6748 10.8513 49.4905 10.7985 49.252 10.7985C49.1003 10.7985 48.9919 10.806 48.9268 10.8211L48.374 10.9116L48.374 8.1778L48.9919 8.1778C49.2954 8.1778 49.5339 8.11745 49.7073 7.99677C49.8808 7.87608 49.9675 7.71013 49.9675 7.49892L49.9675 5.68858C49.9675 5.47737 49.8808 5.31142 49.7073 5.19073C49.5339 5.07005 49.2954 5.0097 48.9919 5.0097L48.374 5.0097L48.374 1.67888C48.374 1.46767 48.2873 1.30173 48.1138 1.18104C47.9404 1.06035 47.7019 1 47.3984 1L44.9593 1C44.6558 1 44.4173 1.06035 44.2439 1.18104C44.0705 1.30173 43.9837 1.46767 43.9837 1.67888L43.9837 5.0097L43.1382 5.0097C42.8347 5.0097 42.5962 5.07005 42.4228 5.19073C42.2493 5.31142 42.1626 5.47737 42.1626 5.68858L42.1626 7.49892C42.1626 7.71013 42.2493 7.87608 42.4228 7.99677C42.5962 8.11745 42.8347 8.1778 43.1382 8.1778L43.9837 8.1778L43.9837 11.6584L42.8455 11.8621C42.2818 11.9526 42 12.2015 42 12.6088L42 14.4418C42 14.6379 42.065 14.7888 42.1951 14.8944C42.3252 15 42.5095 15.0528 42.748 15.0528C42.8997 15.0528 43.0081 15.0453 43.0732 15.0302L43.9837 14.8718L43.9837 18.8545L43.2032 18.8545C42.9648 18.8545 42.7751 18.9149 42.6341 19.0356C42.4932 19.1562 42.4228 19.3222 42.4228 19.5334L42.4228 21.3211C42.4228 21.5323 42.5095 21.6983 42.6829 21.819C42.8564 21.9397 43.0948 22 43.3984 22L47.3984 22ZM85 5C85.5714 5 86.0476 4.80952 86.4286 4.42857C86.8095 4.04762 87 3.57143 87 3C87 2.42857 86.8095 1.95238 86.4286 1.57143C86.0476 1.19048 85.5714 1 85 1C84.4286 1 83.9524 1.19048 83.5714 1.57143C83.1905 1.95238 83 2.42857 83 3C83 3.57143 83.1905 4.04762 83.5714 4.42857C83.9524 4.80952 84.4286 5 85 5ZM79.1347 22C79.4288 22 79.66 21.9397 79.8281 21.819C79.9962 21.6983 80.0802 21.5323 80.0802 21.3211L80 9L87.9742 9C88.2684 9 88.4995 8.93965 88.6676 8.81896C88.8357 8.69827 88.9198 8.53233 88.9198 8.32112L88.9198 6.5334C88.9198 6.3222 88.8357 6.15625 88.6676 6.03556C88.4995 5.91487 88.2684 5.85452 87.9742 5.85452L80 5.85452L80.0802 1.67888C80.0802 1.46767 79.9962 1.30173 79.8281 1.18104C79.66 1.06035 79.4288 1 79.1347 1L76.7393 1C76.4451 1 76.2139 1.06035 76.0458 1.18104C75.8777 1.30173 75.7937 1.46767 75.7937 1.67888L75.7135 5.85452L67.8653 5.85452C67.5712 5.85452 67.34 5.91487 67.1719 6.03556C67.0038 6.15625 66.9198 6.3222 66.9198 6.5334L66.9198 8.32112C66.9198 8.53233 67.0038 8.69827 67.1719 8.81896C67.34 8.93965 67.5712 9 67.8653 9L75.7135 9L75.7937 21.3211C75.7937 21.5323 75.8777 21.6983 76.0458 21.819C76.2139 21.9397 76.4451 22 76.7393 22L79.1347 22ZM88.0519 22C88.3855 22 88.6357 21.9481 88.8025 21.8444C88.9693 21.7407 89.0304 21.5851 88.9859 21.3776L86.5842 10.5446C86.5619 10.376 86.4563 10.2431 86.2672 10.1459C86.0782 10.0486 85.828 10 85.5167 10L82.9481 10C82.6145 10 82.3643 10.0519 82.1975 10.1556C82.0307 10.2593 81.9696 10.4149 82.014 10.6224L84.4158 21.4554C84.4381 21.624 84.5437 21.7569 84.7328 21.8541C84.9218 21.9514 85.172 22 85.4833 22L88.0519 22ZM70.5338 22C70.8497 22 71.1035 21.9514 71.2953 21.8541C71.4871 21.7569 71.5942 21.624 71.6168 21.4554L73.9857 10.6224C74.0309 10.4149 73.9688 10.2593 73.7996 10.1556C73.6304 10.0519 73.3766 10 73.0382 10L70.4323 10C69.8006 10 69.4509 10.1815 69.3832 10.5446L67.0143 21.3776C66.9691 21.5721 67.0312 21.7245 67.2004 21.8347C67.3696 21.9449 67.6234 22 67.9618 22L70.5338 22ZM102.112 22C102.76 22 103.094 21.7732 103.116 21.3197L103.764 4.74423L114.061 4.132C114.687 4.08665 115 3.85234 115 3.42907L115 1.63774C115 1.41099 114.914 1.24471 114.741 1.13889C114.568 1.03307 114.32 0.987717 113.996 1.00284L100.752 1.77379C100.385 1.7889 100.115 1.89472 99.9427 2.09124C99.8347 2.21217 99.7808 2.34823 99.7808 2.49939L99.0036 21.3197C98.982 21.5314 99.0576 21.6977 99.2303 21.8186C99.403 21.9395 99.6404 22 99.9427 22L102.112 22ZM95 6C95.547 6 96.0171 5.80342 96.4102 5.41026C96.8034 5.01709 97 4.54701 97 4C97 3.45299 96.8034 2.9829 96.4102 2.58974C96.0171 2.19658 95.547 2 95 2C94.453 2 93.9829 2.19658 93.5897 2.58974C93.1966 2.9829 93 3.45299 93 4C93 4.54701 93.1966 5.01709 93.5897 5.41026C93.9829 5.80342 94.453 6 95 6ZM108.581 22C108.893 22 109.138 21.9388 109.316 21.8165C109.494 21.6942 109.584 21.5259 109.584 21.3119L109.584 19.5456C109.584 19.3315 109.494 19.1633 109.316 19.041C109.138 18.9186 108.893 18.8575 108.581 18.8575L107.845 18.8575L108.5 9L109.068 8.97706L110.854 21.3577C110.876 21.5565 110.982 21.7133 111.172 21.828C111.361 21.9427 111.612 22 111.924 22L113.729 22C114.064 22 114.315 21.9388 114.482 21.8165C114.649 21.6942 114.71 21.5107 114.666 21.266L113.5 15L114.369 14.8624C114.949 14.7706 115.239 14.5183 115.239 14.1054L115.239 12.1098C115.239 11.911 115.172 11.758 115.038 11.651C114.904 11.544 114.715 11.4904 114.47 11.4904C114.314 11.4904 114.202 11.4981 114.135 11.5134L112.865 11.7198L112.88 8.77061L114.485 8.67886C115.131 8.63299 115.454 8.39596 115.454 7.96777L115.454 6.2474C115.454 6.01802 115.365 5.84598 115.187 5.73129C115.009 5.61659 114.752 5.56689 114.418 5.58219L105.625 6.0639C104.978 6.09447 104.655 6.3315 104.655 6.77498L104 21.3119C104 21.5259 104.089 21.6942 104.267 21.8165C104.446 21.9388 104.691 22 105.003 22L108.581 22ZM95 11C95.547 11 96.0171 10.8034 96.4102 10.4103C96.8034 10.0171 97 9.54701 97 9C97 8.45299 96.8034 7.9829 96.4102 7.58974C96.0171 7.19658 95.547 7 95 7C94.453 7 93.9829 7.19658 93.5897 7.58974C93.1966 7.9829 93 8.45299 93 9C93 9.54701 93.1966 10.0171 93.5897 10.4103C93.9829 10.8034 94.453 11 95 11ZM96.0075 22C96.3083 22 96.5489 21.9512 96.7293 21.8538C96.9098 21.7562 97 21.6025 97 21.3925L97 13.72C97 13.48 96.9398 13.3 96.8195 13.18C96.6992 13.06 96.4887 13 96.188 13L93.9925 13C93.6917 13 93.4511 13.0488 93.2707 13.1462C93.0902 13.2438 93 13.3975 93 13.6075L93 21.28C93 21.52 93.0602 21.7 93.1805 21.82C93.3008 21.94 93.5113 22 93.812 22L96.0075 22Z" fill-rule="nonzero" fill="url(#paint_linear_6_13_0)"/>
	<defs>
		<linearGradient id="paint_linear_6_10_0" x1="4.124217" y1="10.003156" x2="9.082579" y2="17.362312" gradientUnits="userSpaceOnUse">
			<stop stop-color="#FFB200"/>
			<stop offset="0.543468" stop-color="#FED154"/>
			<stop offset="1.000000" stop-color="#FEF3D5"/>
		</linearGradient>
		<linearGradient id="paint_linear_6_11_0" x1="-0.000000" y1="3.901577" x2="12.674126" y2="5.221895" gradientUnits="userSpaceOnUse">
			<stop stop-color="#FE4B00"/>
			<stop offset="1.000000" stop-color="#FF7D00"/>
		</linearGradient>
		<linearGradient id="paint_linear_6_12_0" x1="32.277897" y1="8.005121" x2="18.491226" y2="8.005121" gradientUnits="userSpaceOnUse">
			<stop stop-color="#FF7D00"/>
			<stop offset="1.000000" stop-color="#FFCE00"/>
		</linearGradient>
		<linearGradient id="paint_linear_6_13_0" x1="78.727196" y1="1.000000" x2="78.727196" y2="19.123837" gradientUnits="userSpaceOnUse">
			<stop stop-color="#FFB200"/>
			<stop offset="0.187755" stop-color="#FFF4D7"/>
			<stop offset="1.000000" stop-color="#FFFFFF"/>
		</linearGradient>
	</defs>
</svg>
