<?xml version="1.0" encoding="UTF-8"?>
<svg width="115px" height="27px" viewBox="0 0 115 27" version="1.1" xmlns="http://www.w3.org/2000/svg" xmlns:xlink="http://www.w3.org/1999/xlink">
    <title>编组 3</title>
    <defs>
        <linearGradient x1="26.5927978%" y1="43.4919721%" x2="58.5641262%" y2="75.4883099%" id="linearGradient-1">
            <stop stop-color="#FFB200" offset="0%"></stop>
            <stop stop-color="#FED154" offset="54.3468006%"></stop>
            <stop stop-color="#FEF3D5" offset="100%"></stop>
        </linearGradient>
        <linearGradient x1="-7.95286347%" y1="42.4084419%" x2="46.1908768%" y2="56.7597063%" id="linearGradient-2">
            <stop stop-color="#FE4B00" offset="0%"></stop>
            <stop stop-color="#FF7D00" offset="100%"></stop>
        </linearGradient>
        <linearGradient x1="88.8959464%" y1="34.8048776%" x2="-23.3723135%" y2="34.8048776%" id="linearGradient-3">
            <stop stop-color="#FF7D00" offset="0%"></stop>
            <stop stop-color="#FFCE00" offset="100%"></stop>
        </linearGradient>
        <linearGradient x1="50%" y1="0%" x2="50%" y2="86.3039722%" id="linearGradient-4">
            <stop stop-color="#FFB200" offset="0%"></stop>
            <stop stop-color="#FFF4D7" offset="18.7755075%"></stop>
            <stop stop-color="#FFFFFF" offset="100%"></stop>
        </linearGradient>
    </defs>
    <g id="页面-1" stroke="none" stroke-width="1" fill="none" fill-rule="evenodd">
        <g id="编组-3" transform="translate(0.000000, 0.082000)" fill-rule="nonzero">
            <g id="编组-19备份-4" transform="translate(0.000000, 0.918000)">
                <path d="M9.59210594,19.44 C9.59210594,22.1241039 7.44484003,24.3 4.79605331,24.3 C2.14726658,24.3 6.75000001e-07,22.1241039 6.75000001e-07,19.44 L6.75000001e-07,19.44 L6.75000001e-07,9.72 L0.00533862675,9.39263256 C0.172156139,4.28466081 4.22828436,0.17445087 9.26904596,0.00540912445 L9.59210594,0 L11.8302638,0 C14.4790505,0 16.6263165,2.17589612 16.6263165,4.86 C16.6263165,7.54410389 14.4790505,9.72 11.8302638,9.72 L11.8302638,9.72 L9.59210594,9.72 L9.59210594,19.44 Z" id="形状结合备份-4" fill="url(#linearGradient-1)" transform="translate(8.313159, 12.150000) scale(-1, 1) translate(-8.313159, -12.150000) "></path>
                <path d="M4.47631578,9.72 C1.97651856,9.54255541 0,7.43517562 0,4.86 C0,2.28482437 1.97651856,0.17744459 4.47615562,0.0106393614 L4.47631578,0 L29.4157895,0 L29.4157895,9.72 L4.47631578,9.72 Z" id="形状结合" fill="url(#linearGradient-2)"></path>
                <path d="M29.4157895,19.44 C29.4157895,22.1241039 27.2685235,24.3 24.6197368,24.3 C21.9709502,24.3 19.8236842,22.1241039 19.8236842,19.44 L19.8236842,19.44 L19.8236842,9.72 L19.8290222,9.39263256 C19.9958397,4.28466081 24.0519679,0.17445087 29.0927295,0.00540912445 L29.4157895,0 L31.6539473,0 C34.3027341,0 36.45,2.17589612 36.45,4.86 C36.45,7.54410389 34.3027341,9.72 31.6539473,9.72 L31.6539473,9.72 L29.4157895,9.72 L29.4157895,19.44 Z" id="形状结合" fill="url(#linearGradient-3)"></path>
            </g>
            <path d="M52.8064516,22.918 C53.3655914,22.918 53.7311828,22.7369655 53.9032258,22.3748966 L55.8064516,20.0214483 L57.9677419,22.3975259 C58.1612903,22.7445086 58.5376344,22.918 59.0967742,22.918 L62.1290323,22.918 C62.4086022,22.918 62.6236559,22.8765129 62.7741935,22.7935388 C62.9247312,22.7105647 63,22.5936466 63,22.4427845 C63,22.3070086 62.9408602,22.1750043 62.8225806,22.0467716 C62.7043011,21.9185388 62.6236559,21.8317931 62.5806452,21.7865345 L58.2258065,17.0570086 L62,12.3953707 C62.2365591,12.0936466 62.3763441,11.837181 62.4193548,11.6259741 C62.4623656,11.4449397 62.483871,11.3016207 62.483871,11.1960172 L62.483871,9.15937931 C62.483871,8.94817241 62.3978495,8.78222414 62.2258065,8.66153448 C62.0537634,8.54084483 61.8172043,8.4805 61.516129,8.4805 L58.0967742,8.4805 L58.0967742,6.85118966 L61.8064516,6.85118966 C62.1075269,6.85118966 62.344086,6.79084483 62.516129,6.67015517 C62.688172,6.54946552 62.7741935,6.38351724 62.7741935,6.17231034 L62.7741935,4.38459483 C62.7741935,4.17338793 62.688172,4.00743966 62.516129,3.88675 C62.344086,3.76606034 62.1075269,3.70571552 61.8064516,3.70571552 L58.0967742,3.70571552 L58.0967742,2.59687931 C58.0967742,2.38567241 58.0107527,2.21972414 57.8387097,2.09903448 C57.6666667,1.97834483 57.4301075,1.918 57.1290323,1.918 L54.7096774,1.918 C54.4086022,1.918 54.172043,1.97834483 54,2.09903448 C53.827957,2.21972414 53.7419355,2.38567241 53.7419355,2.59687931 L53.7419355,3.70571552 L50.1290323,3.70571552 C49.827957,3.70571552 49.5913978,3.76606034 49.4193548,3.88675 C49.2473118,4.00743966 49.1612903,4.17338793 49.1612903,4.38459483 L49.1612903,6.17231034 C49.1612903,6.38351724 49.2473118,6.54946552 49.4193548,6.67015517 C49.5913978,6.79084483 49.827957,6.85118966 50.1290323,6.85118966 L53.7419355,6.85118966 L53.7419355,8.4805 L50.3548387,8.4805 C50.0537634,8.4805 49.8172043,8.54084483 49.6451613,8.66153448 C49.4731183,8.78222414 49.3870968,8.94817241 49.3870968,9.15937931 L49.3870968,10.9470948 C49.3870968,11.1583017 49.4731183,11.32425 49.6451613,11.4449397 C49.8172043,11.5656293 50.0537634,11.6259741 50.3548387,11.6259741 L57.7096774,11.6259741 L55.5806452,14.2057155 L54.5483871,13.07425 C54.3763441,12.712181 54.0107527,12.5311466 53.4516129,12.5311466 L50.5483871,12.5311466 C49.9677419,12.5311466 49.6774194,12.6970948 49.6774194,13.0289914 C49.6774194,13.149681 49.7365591,13.2741422 49.8548387,13.402375 C49.9731183,13.5306078 50.0537634,13.6173534 50.0967742,13.6626121 L53.1935484,17.1022672 L49.3870968,21.7639052 C49.344086,21.8091638 49.2688172,21.8959095 49.1612903,22.0241422 C49.0537634,22.152375 49,22.2768362 49,22.3975259 C49,22.7445086 49.2903226,22.918 49.8709677,22.918 L52.8064516,22.918 Z M46.398374,22.918 C46.701897,22.918 46.9403794,22.8576552 47.1138211,22.7369655 C47.2872629,22.6162759 47.3739837,22.4503276 47.3739837,22.2391207 L47.3739837,15.0203707 L48.1544715,14.8845948 C48.7181572,14.7940776 49,14.5451552 49,14.1378276 L49,12.3274828 C49,12.1313621 48.9349593,11.9805 48.804878,11.8748966 C48.6747967,11.7692931 48.4905149,11.7164914 48.2520325,11.7164914 C48.100271,11.7164914 47.9918699,11.7240345 47.9268293,11.7391207 L47.3739837,11.8296379 L47.3739837,9.09580172 L47.9918699,9.09580172 C48.295393,9.09580172 48.5338753,9.0354569 48.7073171,8.91476724 C48.8807588,8.79407759 48.9674797,8.62812931 48.9674797,8.41692241 L48.9674797,6.60657759 C48.9674797,6.39537069 48.8807588,6.22942241 48.7073171,6.10873276 C48.5338753,5.9880431 48.295393,5.92769828 47.9918699,5.92769828 L47.3739837,5.92769828 L47.3739837,2.59687931 C47.3739837,2.38567241 47.2872629,2.21972414 47.1138211,2.09903448 C46.9403794,1.97834483 46.701897,1.918 46.398374,1.918 L43.9593496,1.918 C43.6558266,1.918 43.4173442,1.97834483 43.2439024,2.09903448 C43.0704607,2.21972414 42.9837398,2.38567241 42.9837398,2.59687931 L42.9837398,5.92769828 L42.1382114,5.92769828 C41.8346883,5.92769828 41.596206,5.9880431 41.4227642,6.10873276 C41.2493225,6.22942241 41.1626016,6.39537069 41.1626016,6.60657759 L41.1626016,8.41692241 C41.1626016,8.62812931 41.2493225,8.79407759 41.4227642,8.91476724 C41.596206,9.0354569 41.8346883,9.09580172 42.1382114,9.09580172 L42.9837398,9.09580172 L42.9837398,12.5764052 L41.8455285,12.780069 C41.2818428,12.8705862 41,13.1195086 41,13.5268362 L41,15.3598103 C41,15.555931 41.0650407,15.7067931 41.195122,15.8123966 C41.3252033,15.918 41.5094851,15.9708017 41.7479675,15.9708017 C41.899729,15.9708017 42.0081301,15.9632586 42.0731707,15.9481724 L42.9837398,15.7897672 L42.9837398,19.7725259 L42.203252,19.7725259 C41.9647696,19.7725259 41.7750678,19.8328707 41.6341463,19.9535603 C41.4932249,20.07425 41.4227642,20.2401983 41.4227642,20.4514052 L41.4227642,22.2391207 C41.4227642,22.4503276 41.5094851,22.6162759 41.6829268,22.7369655 C41.8563686,22.8576552 42.0948509,22.918 42.398374,22.918 L46.398374,22.918 Z M84,5.918 C84.5714286,5.918 85.047619,5.72752381 85.4285714,5.34657143 C85.8095238,4.96561905 86,4.48942857 86,3.918 C86,3.34657143 85.8095238,2.87038095 85.4285714,2.48942857 C85.047619,2.10847619 84.5714286,1.918 84,1.918 C83.4285714,1.918 82.952381,2.10847619 82.5714286,2.48942857 C82.1904762,2.87038095 82,3.34657143 82,3.918 C82,4.48942857 82.1904762,4.96561905 82.5714286,5.34657143 C82.952381,5.72752381 83.4285714,5.918 84,5.918 Z M78.1346705,22.918 C78.4288443,22.918 78.6599809,22.8576552 78.8280802,22.7369655 C78.9961796,22.6162759 79.0802292,22.4503276 79.0802292,22.2391207 L79,9.918 L86.974212,9.918 C87.2683859,9.918 87.4995224,9.85765517 87.6676218,9.73696552 C87.8357211,9.61627586 87.9197708,9.45032759 87.9197708,9.23912069 L87.9197708,7.45140517 C87.9197708,7.24019828 87.8357211,7.07425 87.6676218,6.95356034 C87.4995224,6.83287069 87.2683859,6.77252586 86.974212,6.77252586 L79,6.77252586 L79.0802292,2.59687931 C79.0802292,2.38567241 78.9961796,2.21972414 78.8280802,2.09903448 C78.6599809,1.97834483 78.4288443,1.918 78.1346705,1.918 L75.739255,1.918 C75.4450812,1.918 75.2139446,1.97834483 75.0458453,2.09903448 C74.8777459,2.21972414 74.7936963,2.38567241 74.7936963,2.59687931 L74.713467,6.77252586 L66.8653295,6.77252586 C66.5711557,6.77252586 66.3400191,6.83287069 66.1719198,6.95356034 C66.0038204,7.07425 65.9197708,7.24019828 65.9197708,7.45140517 L65.9197708,9.23912069 C65.9197708,9.45032759 66.0038204,9.61627586 66.1719198,9.73696552 C66.3400191,9.85765517 66.5711557,9.918 66.8653295,9.918 L74.713467,9.918 L74.7936963,22.2391207 C74.7936963,22.4503276 74.8777459,22.6162759 75.0458453,22.7369655 C75.2139446,22.8576552 75.4450812,22.918 75.739255,22.918 L78.1346705,22.918 Z M87.0519187,22.918 C87.3855029,22.918 87.635691,22.8661361 87.8024831,22.7624084 C87.9692751,22.6586807 88.0304322,22.5030891 87.9859544,22.2956337 L85.5841485,11.4625705 C85.5619095,11.294013 85.4562746,11.1611118 85.2672435,11.0638671 C85.0782125,10.9666224 84.8280244,10.918 84.5166792,10.918 L81.9480813,10.918 C81.6144971,10.918 81.364309,10.9698639 81.1975169,11.0735916 C81.0307249,11.1773193 80.9695678,11.3329109 81.0140456,11.5403663 L83.4158515,22.3734295 C83.4380905,22.541987 83.5437254,22.6748882 83.7327565,22.7721329 C83.9217875,22.8693776 84.1719756,22.918 84.4833208,22.918 L87.0519187,22.918 Z M69.5338422,22.918 C69.8497031,22.918 70.1035199,22.8693776 70.2952926,22.7721329 C70.4870653,22.6748882 70.5942324,22.541987 70.6167939,22.3734295 L72.9857506,11.5403663 C73.0308736,11.3329109 72.9688295,11.1773193 72.7996183,11.0735916 C72.6304071,10.9698639 72.3765903,10.918 72.0381679,10.918 L69.4323155,10.918 C68.8005937,10.918 68.4508906,11.0995235 68.3832061,11.4625705 L66.0142494,22.2956337 C65.9691264,22.4901232 66.0311705,22.6424733 66.2003817,22.752684 C66.3695929,22.8628947 66.6234097,22.918 66.9618321,22.918 L69.5338422,22.918 Z M101.11221,22.918 C101.759838,22.918 102.094446,22.6912488 102.116033,22.2377463 L102.116033,22.2377463 L102.763661,5.66222999 L113.06094,5.05000162 C113.68698,5.00465137 114,4.77034175 114,4.34707275 L114,4.34707275 L114,2.55573789 C114,2.32898664 113.91365,2.16270239 113.740949,2.05688514 C113.568248,1.95106789 113.319991,1.90571764 112.996177,1.92083439 L112.996177,1.92083439 L99.7521925,2.69178864 C99.3852035,2.70690539 99.1153587,2.81272263 98.942658,3.00924038 C98.83472,3.13017438 98.7807511,3.26622513 98.7807511,3.41739263 L98.7807511,3.41739263 L98.0035979,22.2377463 C97.9820103,22.4493808 98.0575669,22.615665 98.2302676,22.736599 C98.4029683,22.857533 98.6404318,22.918 98.942658,22.918 L98.942658,22.918 L101.11221,22.918 Z M94,6.918 C94.5470085,6.918 95.017094,6.7214188 95.4102564,6.32825641 C95.8034188,5.93509402 96,5.46500855 96,4.918 C96,4.37099145 95.8034188,3.90090598 95.4102564,3.50774359 C95.017094,3.1145812 94.5470085,2.918 94,2.918 C93.4529915,2.918 92.982906,3.1145812 92.5897436,3.50774359 C92.1965812,3.90090598 92,4.37099145 92,4.918 C92,5.46500855 92.1965812,5.93509402 92.5897436,6.32825641 C92.982906,6.7214188 93.4529915,6.918 94,6.918 Z M107.580547,22.918 C107.892604,22.918 108.137791,22.8568311 108.316109,22.7344934 C108.494428,22.6121556 108.583587,22.4439412 108.583587,22.2298501 L108.583587,20.4635989 C108.583587,20.2495078 108.494428,20.0812934 108.316109,19.9589556 C108.137791,19.8366179 107.892604,19.775449 107.580547,19.775449 L106.844985,19.775449 L107.5,9.918 L108.068389,9.89506167 L109.854103,22.2757268 C109.876393,22.4745257 109.98227,22.6312709 110.171733,22.7459625 C110.361196,22.8606542 110.611955,22.918 110.924012,22.918 L112.729483,22.918 C113.06383,22.918 113.31459,22.8568311 113.481763,22.7344934 C113.648936,22.6121556 113.710233,22.428649 113.665653,22.1839735 L112.5,15.918 L113.369301,15.78037 C113.948835,15.6886167 114.238602,15.4362951 114.238602,15.0234052 L114.238602,13.0277706 C114.238602,12.8289718 114.171733,12.6760496 114.037994,12.569004 C113.904255,12.4619585 113.714792,12.4084357 113.469605,12.4084357 C113.313576,12.4084357 113.202128,12.4160819 113.135258,12.4313741 L111.864742,12.637819 L111.879939,9.68861672 L113.484802,9.5968634 C114.131206,9.55098674 114.454407,9.31395735 114.454407,8.88577522 L114.454407,7.16540059 C114.454407,6.9360173 114.365248,6.76397984 114.18693,6.6492882 C114.008612,6.53459656 113.75228,6.48489684 113.417933,6.50018906 L104.62462,6.98189396 C103.978217,7.0124784 103.655015,7.24950779 103.655015,7.69298214 L103,22.2298501 C103,22.4439412 103.089159,22.6121556 103.267477,22.7344934 C103.445795,22.8568311 103.690983,22.918 104.00304,22.918 L107.580547,22.918 Z M94,11.918 C94.5470085,11.918 95.017094,11.7214188 95.4102564,11.3282564 C95.8034188,10.935094 96,10.4650085 96,9.918 C96,9.37099145 95.8034188,8.90090598 95.4102564,8.50774359 C95.017094,8.1145812 94.5470085,7.918 94,7.918 C93.4529915,7.918 92.982906,8.1145812 92.5897436,8.50774359 C92.1965812,8.90090598 92,9.37099145 92,9.918 C92,10.4650085 92.1965812,10.935094 92.5897436,11.3282564 C92.982906,11.7214188 93.4529915,11.918 94,11.918 Z M95.0075188,22.918 C95.3082707,22.918 95.5488722,22.86925 95.7293233,22.77175 C95.9097744,22.67425 96,22.5205 96,22.3105 L96,22.3105 L96,14.638 C96,14.398 95.9398496,14.218 95.8195489,14.098 C95.6992481,13.978 95.4887218,13.918 95.1879699,13.918 L95.1879699,13.918 L92.9924812,13.918 C92.6917293,13.918 92.4511278,13.96675 92.2706767,14.06425 C92.0902256,14.16175 92,14.3155 92,14.5255 L92,14.5255 L92,22.198 C92,22.438 92.0601504,22.618 92.1804511,22.738 C92.3007519,22.858 92.5112782,22.918 92.8120301,22.918 L92.8120301,22.918 L95.0075188,22.918 Z" id="技术派" fill="url(#linearGradient-4)"></path>
        </g>
    </g>
</svg>