<svg t="1664188294776" class="icon" viewBox="0 0 1024 1024" version="1.1" xmlns="http://www.w3.org/2000/svg" p-id="2314"
     width="200" height="200">
    <path d="M621.696 265.152L402.304 128v274.304H263.04L128 621.696h274.304v137.152L621.696 896V621.696h137.152L896 402.304H621.696V265.152z"
          fill="#61C6FF" p-id="2315"></path>
    <path d="M402.304 128l219.456 137.152v137.152H896l-137.152 219.456H621.696V896l-219.456-137.152V621.696H128l135.04-219.456h139.264V128m0-64a64 64 0 0 0-64 64v210.304H263.04a64 64 0 0 0-54.528 30.464L73.472 588.16A64 64 0 0 0 128 685.696h210.304v73.152a64 64 0 0 0 30.08 54.272l219.456 137.152a63.744 63.744 0 0 0 64.896 1.728 64 64 0 0 0 32.96-56v-210.304h73.152a64 64 0 0 0 54.272-30.08l137.152-219.456A64 64 0 0 0 896 338.304H685.696V265.152a64 64 0 0 0-30.08-54.272L436.224 73.728A64.128 64.128 0 0 0 402.304 64z"
          p-id="2316"></path>
    <path d="M512 512m-96 0a96 96 0 1 0 192 0 96 96 0 1 0-192 0Z" fill="#1A5779" p-id="2317"></path>
    <path d="M512 640c-70.592 0-128-57.408-128-128s57.408-128 128-128 128 57.408 128 128-57.408 128-128 128z m0-192c-35.264 0-64 28.736-64 64s28.736 64 64 64 64-28.736 64-64-28.736-64-64-64z"
          p-id="2318"></path>
</svg>