<?xml version="1.0" encoding="UTF-8"?>
<svg width="90px" height="22px" viewBox="0 0 90 22" version="1.1" xmlns="http://www.w3.org/2000/svg" xmlns:xlink="http://www.w3.org/1999/xlink">
    <title>编组 3</title>
    <defs>
        <linearGradient x1="26.5927978%" y1="43.4919721%" x2="58.5641262%" y2="75.4883099%" id="linearGradient-1">
            <stop stop-color="#FFB200" offset="0%"></stop>
            <stop stop-color="#FED154" offset="54.3468006%"></stop>
            <stop stop-color="#FEF3D5" offset="100%"></stop>
        </linearGradient>
        <linearGradient x1="-7.95286347%" y1="42.4084419%" x2="46.1908768%" y2="56.7597063%" id="linearGradient-2">
            <stop stop-color="#FE4B00" offset="0%"></stop>
            <stop stop-color="#FF7D00" offset="100%"></stop>
        </linearGradient>
        <linearGradient x1="88.8959464%" y1="34.8048776%" x2="-23.3723135%" y2="34.8048776%" id="linearGradient-3">
            <stop stop-color="#FF7D00" offset="0%"></stop>
            <stop stop-color="#FFCE00" offset="100%"></stop>
        </linearGradient>
        <linearGradient x1="50%" y1="0%" x2="50%" y2="86.3039722%" id="linearGradient-4">
            <stop stop-color="#FFB200" offset="0%"></stop>
            <stop stop-color="#FFF4D7" offset="18.7755075%"></stop>
            <stop stop-color="#FFFFFF" offset="100%"></stop>
        </linearGradient>
    </defs>
    <g id="页面-1" stroke="none" stroke-width="1" fill="none" fill-rule="evenodd">
        <g id="编组-3" transform="translate(0.000000, 0.082000)" fill-rule="nonzero">
            <g id="编组-19备份-4" transform="translate(0.000000, 0.918000)">
                <path d="M7.10526366,14.4 C7.10526366,16.3882251 5.51469632,18 3.55263208,18 C1.59056784,18 5.00000001e-07,16.3882251 5.00000001e-07,14.4 L5.00000001e-07,14.4 L5.00000001e-07,7.2 L0.00395453833,6.9575056 C0.127523066,3.17382282 3.13206249,0.129222867 6.86595997,0.00400675885 L7.10526366,0 L8.76315839,0 C10.7252226,0 12.31579,1.6117749 12.31579,3.6 C12.31579,5.5882251 10.7252226,7.2 8.76315839,7.2 L8.76315839,7.2 L7.10526366,7.2 L7.10526366,14.4 Z" id="形状结合备份-4" fill="url(#linearGradient-1)" transform="translate(6.157895, 9.000000) scale(-1, 1) translate(-6.157895, -9.000000) "></path>
                <path d="M3.31578947,7.2 C1.46408782,7.06855956 0,5.5075375 0,3.6 C0,1.6924625 1.46408782,0.131440437 3.31567083,0.00788100846 L3.31578947,0 L21.7894737,0 L21.7894737,7.2 L3.31578947,7.2 Z" id="形状结合" fill="url(#linearGradient-2)"></path>
                <path d="M21.7894737,14.4 C21.7894737,16.3882251 20.1989063,18 18.2368421,18 C16.2747779,18 14.6842105,16.3882251 14.6842105,14.4 L14.6842105,14.4 L14.6842105,7.2 L14.6881646,6.9575056 C14.8117331,3.17382282 17.8162725,0.129222867 21.55017,0.00400675885 L21.7894737,0 L23.4473684,0 C25.4094327,0 27,1.6117749 27,3.6 C27,5.5882251 25.4094327,7.2 23.4473684,7.2 L23.4473684,7.2 L21.7894737,7.2 L21.7894737,14.4 Z" id="形状结合" fill="url(#linearGradient-3)"></path>
            </g>
            <path d="M42.206,20.526 C42.5873333,20.526 42.8366667,20.35 42.954,19.998 L42.954,19.998 L44.252,17.71 L45.726,20.02 C45.858,20.3573333 46.1146667,20.526 46.496,20.526 L46.496,20.526 L48.564,20.526 C48.7546667,20.526 48.9013333,20.4856667 49.004,20.405 C49.1066667,20.3243333 49.158,20.2106667 49.158,20.064 C49.158,19.932 49.1176667,19.8036667 49.037,19.679 C48.9563333,19.5543333 48.9013333,19.47 48.872,19.426 L48.872,19.426 L45.902,14.828 L48.476,10.296 C48.6373333,10.0026667 48.7326667,9.75333333 48.762,9.548 C48.7913333,9.372 48.806,9.23266667 48.806,9.13 L48.806,9.13 L48.806,7.15 C48.806,6.94466667 48.7473333,6.78333333 48.63,6.666 C48.5126667,6.54866667 48.3513333,6.49 48.146,6.49 L48.146,6.49 L45.814,6.49 L45.814,4.906 L48.344,4.906 C48.5493333,4.906 48.7106667,4.84733333 48.828,4.73 C48.9453333,4.61266667 49.004,4.45133333 49.004,4.246 L49.004,4.246 L49.004,2.508 C49.004,2.30266667 48.9453333,2.14133333 48.828,2.024 C48.7106667,1.90666667 48.5493333,1.848 48.344,1.848 L48.344,1.848 L45.814,1.848 L45.814,0.77 C45.814,0.564666667 45.7553333,0.403333333 45.638,0.286 C45.5206667,0.168666667 45.3593333,0.11 45.154,0.11 L45.154,0.11 L43.504,0.11 C43.2986667,0.11 43.1373333,0.168666667 43.02,0.286 C42.9026667,0.403333333 42.844,0.564666667 42.844,0.77 L42.844,0.77 L42.844,1.848 L40.38,1.848 C40.1746667,1.848 40.0133333,1.90666667 39.896,2.024 C39.7786667,2.14133333 39.72,2.30266667 39.72,2.508 L39.72,2.508 L39.72,4.246 C39.72,4.45133333 39.7786667,4.61266667 39.896,4.73 C40.0133333,4.84733333 40.1746667,4.906 40.38,4.906 L40.38,4.906 L42.844,4.906 L42.844,6.49 L40.534,6.49 C40.3286667,6.49 40.1673333,6.54866667 40.05,6.666 C39.9326667,6.78333333 39.874,6.94466667 39.874,7.15 L39.874,7.15 L39.874,8.888 C39.874,9.09333333 39.9326667,9.25466667 40.05,9.372 C40.1673333,9.48933333 40.3286667,9.548 40.534,9.548 L40.534,9.548 L45.55,9.548 L44.098,12.056 L43.394,10.956 C43.2766667,10.604 43.0273333,10.428 42.646,10.428 L42.646,10.428 L40.666,10.428 C40.27,10.428 40.072,10.5893333 40.072,10.912 C40.072,11.0293333 40.1123333,11.1503333 40.193,11.275 C40.2736667,11.3996667 40.3286667,11.484 40.358,11.528 L40.358,11.528 L42.47,14.872 L39.874,19.404 C39.8446667,19.448 39.7933333,19.5323333 39.72,19.657 C39.6466667,19.7816667 39.61,19.9026667 39.61,20.02 C39.61,20.3573333 39.808,20.526 40.204,20.526 L40.204,20.526 L42.206,20.526 Z M36.652,20.526 C36.8573333,20.526 37.0186667,20.4673333 37.136,20.35 C37.2533333,20.2326667 37.312,20.0713333 37.312,19.866 L37.312,19.866 L37.312,12.848 L37.84,12.716 C38.2213333,12.628 38.412,12.386 38.412,11.99 L38.412,11.99 L38.412,10.23 C38.412,10.0393333 38.368,9.89266667 38.28,9.79 C38.192,9.68733333 38.0673333,9.636 37.906,9.636 C37.8033333,9.636 37.73,9.64333333 37.686,9.658 L37.686,9.658 L37.312,9.746 L37.312,6.116 L37.73,6.116 C37.9353333,6.116 38.0966667,6.05733333 38.214,5.94 C38.3313333,5.82266667 38.39,5.66133333 38.39,5.456 L38.39,5.456 L38.39,3.696 C38.39,3.49066667 38.3313333,3.32933333 38.214,3.212 C38.0966667,3.09466667 37.9353333,3.036 37.73,3.036 L37.73,3.036 L37.312,3.036 L37.312,0.77 C37.312,0.564666667 37.2533333,0.403333333 37.136,0.286 C37.0186667,0.168666667 36.8573333,0.11 36.652,0.11 L36.652,0.11 L35.002,0.11 C34.7966667,0.11 34.6353333,0.168666667 34.518,0.286 C34.4006667,0.403333333 34.342,0.564666667 34.342,0.77 L34.342,0.77 L34.342,3.036 L33.77,3.036 C33.5646667,3.036 33.4033333,3.09466667 33.286,3.212 C33.1686667,3.32933333 33.11,3.49066667 33.11,3.696 L33.11,3.696 L33.11,5.456 C33.11,5.66133333 33.1686667,5.82266667 33.286,5.94 C33.4033333,6.05733333 33.5646667,6.116 33.77,6.116 L33.77,6.116 L34.342,6.116 L34.342,10.472 L33.572,10.67 C33.1906667,10.758 33,11 33,11.396 L33,11.396 L33,13.178 C33,13.3686667 33.044,13.5153333 33.132,13.618 C33.22,13.7206667 33.3446667,13.772 33.506,13.772 C33.6086667,13.772 33.682,13.7646667 33.726,13.75 L33.726,13.75 L34.342,13.596 L34.342,17.468 L33.814,17.468 C33.6526667,17.468 33.5243333,17.5266667 33.429,17.644 C33.3336667,17.7613333 33.286,17.9226667 33.286,18.128 L33.286,18.128 L33.286,19.866 C33.286,20.0713333 33.3446667,20.2326667 33.462,20.35 C33.5793333,20.4673333 33.7406667,20.526 33.946,20.526 L33.946,20.526 L36.652,20.526 Z M65.678,2.772 C66.074,2.772 66.404,2.64 66.668,2.376 C66.932,2.112 67.064,1.782 67.064,1.386 C67.064,0.99 66.932,0.66 66.668,0.396 C66.404,0.132 66.074,0 65.678,0 C65.282,0 64.952,0.132 64.688,0.396 C64.424,0.66 64.292,0.99 64.292,1.386 C64.292,1.782 64.424,2.112 64.688,2.376 C64.952,2.64 65.282,2.772 65.678,2.772 Z M61.828,20.526 C62.0333333,20.526 62.1946667,20.4673333 62.312,20.35 C62.4293333,20.2326667 62.488,20.0713333 62.488,19.866 L62.488,19.866 L62.488,6.38 L68.054,6.38 C68.2593333,6.38 68.4206667,6.32133333 68.538,6.204 C68.6553333,6.08666667 68.714,5.92533333 68.714,5.72 L68.714,5.72 L68.714,3.982 C68.714,3.77666667 68.6553333,3.61533333 68.538,3.498 C68.4206667,3.38066667 68.2593333,3.322 68.054,3.322 L68.054,3.322 L62.488,3.322 L62.488,0.77 C62.488,0.564666667 62.4293333,0.403333333 62.312,0.286 C62.1946667,0.168666667 62.0333333,0.11 61.828,0.11 L61.828,0.11 L60.156,0.11 C59.9506667,0.11 59.7893333,0.168666667 59.672,0.286 C59.5546667,0.403333333 59.496,0.564666667 59.496,0.77 L59.496,0.77 L59.496,3.322 L54.018,3.322 C53.8126667,3.322 53.6513333,3.38066667 53.534,3.498 C53.4166667,3.61533333 53.358,3.77666667 53.358,3.982 L53.358,3.982 L53.358,5.72 C53.358,5.92533333 53.4166667,6.08666667 53.534,6.204 C53.6513333,6.32133333 53.8126667,6.38 54.018,6.38 L54.018,6.38 L59.496,6.38 L59.496,19.866 C59.496,20.0713333 59.5546667,20.2326667 59.672,20.35 C59.7893333,20.4673333 59.9506667,20.526 60.156,20.526 L60.156,20.526 L61.828,20.526 Z M68.054,20.526 C68.274,20.526 68.439,20.4673333 68.549,20.35 C68.659,20.2326667 68.6993333,20.0566667 68.67,19.822 L68.67,19.822 L67.086,7.568 C67.0713333,7.37733333 67.0016667,7.227 66.877,7.117 C66.7523333,7.007 66.5873333,6.952 66.382,6.952 L66.382,6.952 L64.688,6.952 C64.468,6.952 64.303,7.01066667 64.193,7.128 C64.083,7.24533333 64.0426667,7.42133333 64.072,7.656 L64.072,7.656 L65.656,19.91 C65.6706667,20.1006667 65.7403333,20.251 65.865,20.361 C65.9896667,20.471 66.1546667,20.526 66.36,20.526 L66.36,20.526 L68.054,20.526 Z M55.778,20.526 C55.9833333,20.526 56.1483333,20.471 56.273,20.361 C56.3976667,20.251 56.4673333,20.1006667 56.482,19.91 L56.482,19.91 L58.022,7.656 C58.0513333,7.42133333 58.011,7.24533333 57.901,7.128 C57.791,7.01066667 57.626,6.952 57.406,6.952 L57.406,6.952 L55.712,6.952 C55.3013333,6.952 55.074,7.15733333 55.03,7.568 L55.03,7.568 L53.49,19.822 C53.4606667,20.042 53.501,20.2143333 53.611,20.339 C53.721,20.4636667 53.886,20.526 54.106,20.526 L54.106,20.526 L55.778,20.526 Z M80.448,20.526 C80.888,20.526 81.1153333,20.306 81.13,19.866 L81.13,19.866 L81.57,3.784 L88.566,3.19 C88.9913333,3.146 89.204,2.91866667 89.204,2.508 L89.204,2.508 L89.204,0.77 C89.204,0.55 89.1453333,0.388666667 89.028,0.286 C88.9106667,0.183333333 88.742,0.139333333 88.522,0.154 L88.522,0.154 L79.524,0.902 C79.2746667,0.916666667 79.0913333,1.01933333 78.974,1.21 C78.9006667,1.32733333 78.864,1.45933333 78.864,1.606 L78.864,1.606 L78.336,19.866 C78.3213333,20.0713333 78.3726667,20.2326667 78.49,20.35 C78.6073333,20.4673333 78.7686667,20.526 78.974,20.526 L78.974,20.526 L80.448,20.526 Z M74.96,4.312 C75.4293333,4.312 75.8326667,4.14333333 76.17,3.806 C76.5073333,3.46866667 76.676,3.06533333 76.676,2.596 C76.676,2.12666667 76.5073333,1.72333333 76.17,1.386 C75.8326667,1.04866667 75.4293333,0.88 74.96,0.88 C74.4906667,0.88 74.0873333,1.04866667 73.75,1.386 C73.4126667,1.72333333 73.244,2.12666667 73.244,2.596 C73.244,3.06533333 73.4126667,3.46866667 73.75,3.806 C74.0873333,4.14333333 74.4906667,4.312 74.96,4.312 Z M84.98,20.526 C85.1853333,20.526 85.3466667,20.4673333 85.464,20.35 C85.5813333,20.2326667 85.64,20.0713333 85.64,19.866 L85.64,19.866 L85.64,18.172 C85.64,17.9666667 85.5813333,17.8053333 85.464,17.688 C85.3466667,17.5706667 85.1853333,17.512 84.98,17.512 L84.98,17.512 L84.496,17.512 L84.496,7.502 L84.87,7.48 L86.476,19.91 C86.4906667,20.1006667 86.5603333,20.251 86.685,20.361 C86.8096667,20.471 86.9746667,20.526 87.18,20.526 L87.18,20.526 L88.368,20.526 C88.588,20.526 88.753,20.4673333 88.863,20.35 C88.973,20.2326667 89.0133333,20.0566667 88.984,19.822 L88.984,19.822 L88.06,12.606 L88.632,12.474 C89.0133333,12.386 89.204,12.144 89.204,11.748 L89.204,11.748 L89.204,9.834 C89.204,9.64333333 89.16,9.49666667 89.072,9.394 C88.984,9.29133333 88.8593333,9.24 88.698,9.24 C88.5953333,9.24 88.522,9.24733333 88.478,9.262 L88.478,9.262 L87.642,9.46 L87.378,7.282 L88.434,7.194 C88.8593333,7.15 89.072,6.92266667 89.072,6.512 L89.072,6.512 L89.072,4.862 C89.072,4.642 89.0133333,4.477 88.896,4.367 C88.7786667,4.257 88.61,4.20933333 88.39,4.224 L88.39,4.224 L82.604,4.686 C82.1786667,4.71533333 81.966,4.94266667 81.966,5.368 L81.966,5.368 L81.966,19.866 C81.966,20.0713333 82.0246667,20.2326667 82.142,20.35 C82.2593333,20.4673333 82.4206667,20.526 82.626,20.526 L82.626,20.526 L84.98,20.526 Z M75.07,9.768 C75.5393333,9.768 75.9426667,9.59933333 76.28,9.262 C76.6173333,8.92466667 76.786,8.52133333 76.786,8.052 C76.786,7.58266667 76.6173333,7.17933333 76.28,6.842 C75.9426667,6.50466667 75.5393333,6.336 75.07,6.336 C74.6006667,6.336 74.1973333,6.50466667 73.86,6.842 C73.5226667,7.17933333 73.354,7.58266667 73.354,8.052 C73.354,8.52133333 73.5226667,8.92466667 73.86,9.262 C74.1973333,9.59933333 74.6006667,9.768 75.07,9.768 Z M75.774,20.504 C75.994,20.504 76.17,20.4563333 76.302,20.361 C76.434,20.2656667 76.5,20.1153333 76.5,19.91 L76.5,19.91 L76.5,12.408 C76.5,12.1733333 76.456,11.9973333 76.368,11.88 C76.28,11.7626667 76.126,11.704 75.906,11.704 L75.906,11.704 L74.3,11.704 C74.08,11.704 73.904,11.7516667 73.772,11.847 C73.64,11.9423333 73.574,12.0926667 73.574,12.298 L73.574,12.298 L73.574,19.8 C73.574,20.0346667 73.618,20.2106667 73.706,20.328 C73.794,20.4453333 73.948,20.504 74.168,20.504 L74.168,20.504 L75.774,20.504 Z" id="技术派" fill="url(#linearGradient-4)"></path>
        </g>
    </g>
</svg>